<svg xmlns="http://www.w3.org/2000/svg" viewBox="0 0 760 235" width="760" height="235">
  <defs>
    <linearGradient id="blueGrad" x1="0%" y1="0%" x2="0%" y2="100%">
      <stop offset="0%" style="stop-color:#3B82C4;stop-opacity:1" />
      <stop offset="100%" style="stop-color:#1E63A8;stop-opacity:1" />
    </linearGradient>
    <linearGradient id="orangeGrad" x1="0%" y1="0%" x2="0%" y2="100%">
      <stop offset="0%" style="stop-color:#FF8C2A;stop-opacity:1" />
      <stop offset="100%" style="stop-color:#E06000;stop-opacity:1" />
    </linearGradient>
    <linearGradient id="iconBg" x1="0%" y1="0%" x2="100%" y2="100%">
      <stop offset="0%" style="stop-color:#4A9AE0;stop-opacity:1" />
      <stop offset="100%" style="stop-color:#1A5FA8;stop-opacity:1" />
    </linearGradient>
    <linearGradient id="gloss" x1="0%" y1="0%" x2="0%" y2="100%">
      <stop offset="0%" style="stop-color:#FFFFFF;stop-opacity:0.28" />
      <stop offset="55%" style="stop-color:#FFFFFF;stop-opacity:0.04" />
      <stop offset="100%" style="stop-color:#FFFFFF;stop-opacity:0" />
    </linearGradient>
    <filter id="iconShadow" x="-15%" y="-10%" width="140%" height="140%">
      <feDropShadow dx="0" dy="4" stdDeviation="7" flood-color="#1A5FA8" flood-opacity="0.35"/>
    </filter>
    <filter id="textShadow" x="-2%" y="-5%" width="110%" height="130%">
      <feDropShadow dx="0" dy="2" stdDeviation="2" flood-color="#1A5FA8" flood-opacity="0.15"/>
    </filter>
    <filter id="orangeGlow" x="-20%" y="-20%" width="150%" height="150%">
      <feDropShadow dx="0" dy="1" stdDeviation="3" flood-color="#FF8C2A" flood-opacity="0.5"/>
    </filter>
    <linearGradient id="ruleGrad" x1="0%" y1="0%" x2="100%" y2="0%">
      <stop offset="0%" style="stop-color:#3B82C4;stop-opacity:1" />
      <stop offset="100%" style="stop-color:#FF8C2A;stop-opacity:1" />
    </linearGradient>
  </defs>

  <rect width="760" height="235" rx="12" fill="#FFFFFF"/>
  <rect x="1" y="1" width="758" height="233" rx="11" fill="none" stroke="#E4EDF7" stroke-width="1.5"/>

  <g filter="url(#iconShadow)">
    <rect x="22" y="22" width="148" height="188" rx="30" fill="url(#iconBg)"/>
  </g>
  <rect x="22" y="22" width="148" height="94" rx="30" fill="url(#gloss)"/>
  <rect x="22" y="88" width="148" height="18" fill="url(#gloss)"/>

  <g filter="url(#iconShadow)">
    <polygon points="52,36  120,116  52,196  74,196  128,116  74,36" fill="#FFFFFF" opacity="0.92"/>
  </g>
  <g filter="url(#orangeGlow)">
    <polygon points="82,52  148,116  82,176  102,176  152,116  102,52" fill="url(#orangeGrad)"/>
  </g>

  <rect x="23.5" y="23.5" width="145" height="185" rx="29" fill="none" stroke="#FFFFFF" stroke-width="1.2" opacity="0.25"/>

  <text x="188" y="103" font-family="'Barlow Condensed', 'Arial Narrow', 'Impact', sans-serif" font-size="68" font-weight="800" letter-spacing="1.5" fill="url(#blueGrad)" filter="url(#textShadow)">LINE-MARKING</text>

  <rect x="188" y="116" width="548" height="3" rx="1.5" fill="url(#ruleGrad)"/>

  <text x="188" y="205" font-family="'Barlow Condensed', 'Arial Narrow', sans-serif" font-size="68" font-weight="800" letter-spacing="1.5" fill="url(#orangeGrad)" filter="url(#orangeGlow)">.CO.NZ</text>
</svg>
